<svg xmlns="http://www.w3.org/2000/svg" xmlns:xlink="http://www.w3.org/1999/xlink" width="690" height="363.94"><rect width="690" height="363.94" rx="5" ry="5" class="a"/><svg y="0%" x="0%"><circle cx="20" cy="20" r="6" fill="#ff5f58"/><circle cx="40" cy="20" r="6" fill="#ffbd2e"/><circle cx="60" cy="20" r="6" fill="#18c132"/></svg><svg height="303.94" viewBox="0 0 65 30.394" width="650" x="15" xmlns="http://www.w3.org/2000/svg" xmlns:xlink="http://www.w3.org/1999/xlink" y="50"><style>@keyframes l{0%{transform:translateX(0)}.1%{transform:translateX(-65px)}9.2%{transform:translateX(-130px)}9.8%{transform:translateX(-195px)}10.4%{transform:translateX(-260px)}11.1%{transform:translateX(-325px)}11.7%{transform:translateX(-390px)}12.3%{transform:translateX(-455px)}13%{transform:translateX(-520px)}13.6%{transform:translateX(-585px)}14.2%{transform:translateX(-650px)}14.8%{transform:translateX(-715px)}15.4%{transform:translateX(-780px)}16.1%{transform:translateX(-845px)}16.7%{transform:translateX(-910px)}17.3%{transform:translateX(-975px)}30.9%{transform:translateX(-1040px)}47.2%{transform:translateX(-1105px)}56.3%{transform:translateX(-1170px)}79%{transform:translateX(-1235px)}82.7%{transform:translateX(-1300px)}86.4%{transform:translateX(-1365px)}91%{transform:translateX(-1430px)}to{transform:translateX(-1430px)}}.a{fill:#f4f3ee}.f,.g,.h,.i{fill:#33bbc8;white-space:pre}.g,.h,.i{fill:#3b2322}.h,.i{fill:#ff8700}.i{fill:#adad27}</style><g font-family="Monaco,Consolas,Menlo,'Bitstream Vera Sans Mono','Powerline Symbols',monospace" font-size="1.67"><defs><symbol id="1"><text y="1.67" class="f">&gt;</text><text x="2.004" y="1.67" class="g">list</text></symbol><symbol id="2"><text y="1.67" class="f">&gt;</text><text x="2.004" y="1.67" class="g">list</text><text x="7.014" y="1.67" class="g">my</text></symbol><symbol id="3"><text y="1.67" class="f">&gt;</text><text x="2.004" y="1.67" class="g">list</text><text x="7.014" y="1.67" class="g">my</text><text x="10.02" y="1.67" class="g">repos</text></symbol><symbol id="4"><text y="1.67" class="h">⏺</text><text x="2.004" y="1.67" class="g">I</text><text x="4.008" y="1.67" class="g">need</text><text x="9.018" y="1.67" class="g">your</text><text x="14.028" y="1.67" class="g">GitHub</text><text x="21.042" y="1.67" class="g">token.</text></symbol><symbol id="5"><text x="2.004" y="1.67" class="g">Bash(p2ai</text><text x="12.024" y="1.67" class="g">run</text><text x="16.032" y="1.67" class="g">-e</text><text x="19.038" y="1.67" class="g">GH_TOKEN=&apos;GitHub</text><text x="36.072" y="1.67" class="g">Token&apos;</text><text x="43.086" y="1.67" class="g">--</text><text x="46.092" y="1.67" class="g">gh</text><text x="49.098" y="1.67" class="g">repo</text><text x="54.108" y="1.67" class="g">list)</text></symbol><symbol id="6"><text x="2.004" y="1.67" class="i">🫆</text><text x="5.01" y="1.67" class="i">Touch</text><text x="11.022" y="1.67" class="i">ID</text><text x="15.03" y="1.67" class="i">→</text><text x="18.036" y="1.67" class="i">tap</text></symbol><symbol id="7"><text x="2.004" y="1.67" class="g">⎿</text><text x="5.01" y="1.67" class="g">passwort2ai-by-fingerprint</text></symbol><symbol id="8"><text x="2.004" y="1.67" class="g">⎿</text><text x="5.01" y="1.67" class="g">homebrew-p2ai</text></symbol><symbol id="9"><text x="2.004" y="1.67" class="g">⎿</text><text x="5.01" y="1.67" class="g">dotfiles</text></symbol><symbol id="a"><path fill="transparent" d="M0 0h65v15H0z"/></symbol><symbol id="b"><path fill="rgb(58,35,34,166)" d="M0 0h1.102v2.171H0z"/></symbol></defs><path class="a" d="M0 0h65v30.394H0z"/><g style="animation-duration:14s;animation-iteration-count:infinite;animation-name:l;animation-timing-function:steps(1,end)"><svg width="1495"><svg><use xlink:href="#a"/><use xlink:href="#b" x="-.004"/></svg><svg x="65"><use xlink:href="#a"/><use xlink:href="#b" x="-.004"/></svg><svg x="130"><use xlink:href="#a"/><use xlink:href="#b" x="2.996"/><text y="1.67" class="f">&gt;</text><text x="2.004" y="1.67" class="g">l</text></svg><svg x="195"><use xlink:href="#a"/><use xlink:href="#b" x="3.996"/><text y="1.67" class="f">&gt;</text><text x="2.004" y="1.67" class="g">li</text></svg><svg x="260"><use xlink:href="#a"/><use xlink:href="#b" x="4.996"/><text y="1.67" class="f">&gt;</text><text x="2.004" y="1.67" class="g">lis</text></svg><svg x="325"><use xlink:href="#a"/><use xlink:href="#b" x="5.996"/><use xlink:href="#1"/></svg><svg x="390"><use xlink:href="#a"/><use xlink:href="#b" x="6.996"/><use xlink:href="#1"/></svg><svg x="455"><use xlink:href="#a"/><use xlink:href="#b" x="7.996"/><text y="1.67" class="f">&gt;</text><text x="2.004" y="1.67" class="g">list</text><text x="7.014" y="1.67" class="g">m</text></svg><svg x="520"><use xlink:href="#a"/><use xlink:href="#b" x="8.996"/><use xlink:href="#2"/></svg><svg x="585"><use xlink:href="#a"/><use xlink:href="#b" x="9.996"/><use xlink:href="#2"/></svg><svg x="650"><use xlink:href="#a"/><use xlink:href="#b" x="10.996"/><text y="1.67" class="f">&gt;</text><text x="2.004" y="1.67" class="g">list</text><text x="7.014" y="1.67" class="g">my</text><text x="10.02" y="1.67" class="g">r</text></svg><svg x="715"><use xlink:href="#a"/><use xlink:href="#b" x="11.996"/><text y="1.67" class="f">&gt;</text><text x="2.004" y="1.67" class="g">list</text><text x="7.014" y="1.67" class="g">my</text><text x="10.02" y="1.67" class="g">re</text></svg><svg x="780"><use xlink:href="#a"/><use xlink:href="#b" x="12.996"/><text y="1.67" class="f">&gt;</text><text x="2.004" y="1.67" class="g">list</text><text x="7.014" y="1.67" class="g">my</text><text x="10.02" y="1.67" class="g">rep</text></svg><svg x="845"><use xlink:href="#a"/><use xlink:href="#b" x="13.996"/><text y="1.67" class="f">&gt;</text><text x="2.004" y="1.67" class="g">list</text><text x="7.014" y="1.67" class="g">my</text><text x="10.02" y="1.67" class="g">repo</text></svg><svg x="910"><use xlink:href="#a"/><use xlink:href="#b" x="14.996"/><use xlink:href="#3"/></svg><svg x="975"><use xlink:href="#a"/><use xlink:href="#b" x="-.004" y="2.146"/><use xlink:href="#3"/></svg><svg x="1040"><use xlink:href="#a"/><use xlink:href="#b" x="-.004" y="4.317"/><use xlink:href="#3"/><use xlink:href="#4" y="2.171"/></svg><svg x="1105"><use xlink:href="#a"/><use xlink:href="#b" x="-.004" y="6.488"/><use xlink:href="#3"/><use xlink:href="#4" y="2.171"/><use xlink:href="#5" y="4.342"/></svg><svg x="1170"><use xlink:href="#a"/><use xlink:href="#b" x="-.004" y="8.659"/><use xlink:href="#3"/><use xlink:href="#4" y="2.171"/><use xlink:href="#5" y="4.342"/><use xlink:href="#6" y="6.513"/></svg><svg x="1235"><use xlink:href="#a"/><use xlink:href="#b" x="-.004" y="10.83"/><use xlink:href="#3"/><use xlink:href="#4" y="2.171"/><use xlink:href="#5" y="4.342"/><use xlink:href="#6" y="6.513"/><use xlink:href="#7" y="8.684"/></svg><svg x="1300"><use xlink:href="#a"/><use xlink:href="#b" x="-.004" y="13.001"/><use xlink:href="#3"/><use xlink:href="#4" y="2.171"/><use xlink:href="#5" y="4.342"/><use xlink:href="#6" y="6.513"/><use xlink:href="#7" y="8.684"/><use xlink:href="#8" y="10.855"/></svg><svg x="1365"><use xlink:href="#a"/><use xlink:href="#b" x="-.004" y="15.172"/><use xlink:href="#3"/><use xlink:href="#4" y="2.171"/><use xlink:href="#5" y="4.342"/><use xlink:href="#6" y="6.513"/><use xlink:href="#7" y="8.684"/><use xlink:href="#8" y="10.855"/><use xlink:href="#9" y="13.026"/></svg><svg x="1430"><use xlink:href="#a"/><use xlink:href="#b" x="-.004" y="17.343"/><use xlink:href="#3"/><use xlink:href="#4" y="2.171"/><use xlink:href="#5" y="4.342"/><use xlink:href="#6" y="6.513"/><use xlink:href="#7" y="8.684"/><use xlink:href="#8" y="10.855"/><use xlink:href="#9" y="13.026"/><text y="16.867" class="h">⏺</text><text x="2.004" y="16.867" class="g">Done.</text><text x="8.016" y="16.867" class="g">Token</text><text x="14.028" y="16.867" class="g">stayed</text><text x="21.042" y="16.867" class="g">out</text><text x="25.05" y="16.867" class="g">of</text><text x="28.056" y="16.867" class="g">our</text><text x="32.064" y="16.867" class="g">chat.</text></svg></svg></g></g></svg></svg>